<?xml version="1.0" encoding="UTF-8"?>
<svg id="Layer_1" data-name="Layer 1" xmlns="http://www.w3.org/2000/svg" viewBox="0 0 117.03 71.63">
  <path d="m95.22,10.73V1H1v16.89c0,26.02,21.09,47.11,47.11,47.11h0c12.84,0,24.47-5.14,32.97-13.47,7.68,1.82,30.55-6.13,34.37-23.35,3.43-15.44-9.11-22.46-20.23-17.46Zm11.93,15.58c-.01.08-.03.16-.05.24-.07.32-.15.64-.24.96-.02.06-.03.13-.05.19-.12.38-.25.76-.41,1.15-.03.08-.07.16-.11.25-.13.31-.28.62-.43.93-.05.11-.11.22-.17.32-.21.39-.43.78-.68,1.17-4.25,6.65-11.73,9.25-16.3,10.25,3.69-6.25,5.97-13.42,6.42-21.09,6.2-4.34,10.68-2.69,11.89,1.33h0c.09.31.17.64.22.97,0,.02,0,.05,0,.07.05.3.07.62.09.94,0,.05,0,.1,0,.15.02.69-.05,1.41-.19,2.16Z" fill="none" stroke="#242c39" stroke-linecap="round" stroke-linejoin="round" stroke-width="2"/>
  <path d="m48.11,59c-22.67,0-41.11-18.44-41.11-41.11V7h82.22v10.89c0,22.67-18.44,41.11-41.11,41.11Z" fill="#583727" stroke-width="0"/>
  <rect x="7" y="7" width="82.22" height="4.44" fill="#d08845" stroke-width="0"/>
  <path d="m48.11,59c14.2,0,26.74-7.24,34.13-18.22H13.98c7.39,10.98,19.93,18.22,34.13,18.22Z" fill="#45281a" stroke-width="0"/>
  <path d="m68.01,60.62c2.85,1.04,4.39,2.26,4.39,3.63,0,3.52-11.04,6.37-24.65,6.37s-24.65-2.85-24.65-6.37c0-1.39,1.72-2.67,4.63-3.72" fill="none" stroke="#292e43" stroke-linecap="round" stroke-linejoin="round" stroke-width="2"/>
  <path d="m15.93,7c-.51,20.84,2.92,40.29,28.26,51.81,1.29.12,2.6.19,3.92.19,2.64,0,5.22-.26,7.72-.74-12.84-5.24-23.65-14.81-24.24-32.97-.2-6.34-.28-12.53-.27-18.3h-15.39Z" fill="#fff" opacity=".25" stroke-width="0"/>
</svg>