<?xml version="1.0" encoding="UTF-8"?>
<svg id="Layer_1" data-name="Layer 1" xmlns="http://www.w3.org/2000/svg" viewBox="0 0 110.06 100.03">
  <path d="m44.3,86.89c-14.69,0-25.12-2.69-27.23-4.67L8.01,28.88c3.7.03,8.89.05,15.44.05,18.83,0,44.83-.14,57.16-.22l-9.08,53.51c-2.12,1.98-12.54,4.67-27.23,4.67Z" fill="#e7a05f" stroke-width="0"/>
  <path d="m86.39,38.22c-.39,0-.78,0-1.17.03l2.37-15.59S1,23.26,1,22.67l10.09,66.27c0,7.96,20.88,10.09,33.21,10.09s33.21-2.12,33.21-10.09l1.03-6.79c2.45.91,5.09,1.4,7.85,1.4,12.5,0,22.67-10.17,22.67-22.67s-10.17-22.67-22.67-22.67Zm0,37.33c-2.38,0-4.62-.58-6.6-1.59l4.19-27.53c.79-.13,1.59-.22,2.41-.22,8.09,0,14.67,6.58,14.67,14.67s-6.58,14.67-14.67,14.67Z" fill="none" stroke="#292e43" stroke-linecap="round" stroke-linejoin="round" stroke-width="2"/>
  <path d="m8.01,28.88l4.6,27.12h63.36l4.63-27.29c-12.33.07-38.33.22-57.16.22-6.54,0-11.73-.02-15.44-.05Z" fill="#f4e4cf" stroke-width="0"/>
  <path d="m5.06,17.48h78.52S79.13,0,44.61,0,5.06,17.48,5.06,17.48Z" fill="#f4e4cf" stroke-width="0"/>
  <path d="m13.31,7.7h62.34c-5.64-4-15.15-7.7-31.04-7.7S19.09,3.71,13.31,7.7Z" fill="#fff" opacity=".29" stroke-width="0"/>
  <path d="m20.62,28.93l8.12,56.85c3.2.49,6.95.87,11.13,1.03l-3.45-57.89c-4.52.01-8.92.02-12.98.02-.98,0-1.91,0-2.83,0Z" fill="#fff" opacity=".25" stroke-width="0"/>
</svg>