<?xml version="1.0" encoding="UTF-8"?>
<!DOCTYPE svg PUBLIC "-//W3C//DTD SVG 1.1//EN" "http://www.w3.org/Graphics/SVG/1.1/DTD/svg11.dtd">
<svg xmlns="http://www.w3.org/2000/svg" version="1.1" width="512px" height="512px" style="shape-rendering:geometricPrecision; text-rendering:geometricPrecision; image-rendering:optimizeQuality; fill-rule:evenodd; clip-rule:evenodd" xmlns:xlink="http://www.w3.org/1999/xlink">
<g><path style="opacity:0.972" fill="#010100" d="M 340.5,127.5 C 340.258,131.166 338.925,134.333 336.5,137C 273.409,160.096 224.909,200.596 191,258.5C 174.861,286.726 166.028,317.059 164.5,349.5C 163.203,383.467 174.536,412.3 198.5,436C 225.575,457.104 256.242,465.104 290.5,460C 331.516,453.672 368.183,437.672 400.5,412C 441.86,379.436 471.027,338.27 488,288.5C 495.121,266.5 497.621,244.167 495.5,221.5C 488.104,168.27 457.77,137.77 404.5,130C 390.811,129.472 377.144,129.472 363.5,130C 361.174,128.195 359.508,126.028 358.5,123.5C 358.82,119.013 361.153,116.18 365.5,115C 405.187,108.838 440.854,117.838 472.5,142C 495.229,162.958 508.229,188.791 511.5,219.5C 511.5,231.167 511.5,242.833 511.5,254.5C 503.972,304.604 483.472,348.604 450,386.5C 416.657,424.767 375.823,451.933 327.5,468C 290.537,479.99 253.871,479.323 217.5,466C 205.547,460.516 194.547,453.683 184.5,445.5C 131.822,459.107 87.9891,445.107 53,403.5C 52.3412,400.112 52.5078,396.779 53.5,393.5C 59.6281,391.171 64.6281,392.504 68.5,397.5C 97.0511,429.739 132.384,441.239 174.5,432C 166.375,421.253 160.209,409.42 156,396.5C 151.669,376.181 147.336,355.847 143,335.5C 140.763,325.204 137.93,315.204 134.5,305.5C 131.976,296.427 129.143,287.427 126,278.5C 119.411,263.068 113.411,247.401 108,231.5C 105.236,223.355 103.903,215.021 104,206.5C 105.397,204.93 106.897,203.596 108.5,202.5C 113.023,202.345 116.189,204.345 118,208.5C 120.221,219.718 123.221,230.718 127,241.5C 132.401,253.631 137.234,265.964 141.5,278.5C 146.023,289.904 149.857,301.57 153,313.5C 158.491,294.196 165.657,275.529 174.5,257.5C 171.946,248.745 168.613,240.411 164.5,232.5C 148.443,192.597 136.277,151.597 128,109.5C 118.214,131.096 113.547,153.762 114,177.5C 112.348,181.877 109.181,183.544 104.5,182.5C 102.292,181.977 100.792,180.644 100,178.5C 98.6889,150.033 104.356,123.033 117,97.5C 123.111,90.7202 130.111,89.7202 138,94.5C 140.804,98.4432 142.804,102.777 144,107.5C 150.417,144.912 160.583,181.246 174.5,216.5C 177.711,224.298 181.211,231.965 185,239.5C 206.875,205.458 234.375,176.791 267.5,153.5C 258.025,127.852 244.025,105.185 225.5,85.5C 192.036,50.7384 152.703,41.905 107.5,59C 82.8691,71.63 63.3691,89.7967 49,113.5C 22.5913,158.919 11.2579,207.919 15,260.5C 17.297,299.03 27.9637,335.03 47,368.5C 47.6037,372.415 46.437,375.749 43.5,378.5C 39.3966,379.231 35.8966,378.231 33,375.5C 13.923,341.507 2.75636,305.174 -0.5,266.5C -0.5,250.5 -0.5,234.5 -0.5,218.5C 3.52438,166.804 21.691,120.804 54,80.5C 81.844,48.4382 117.011,33.2715 159.5,35C 186.39,38.1154 209.724,48.7821 229.5,67C 252.655,89.171 269.822,115.338 281,145.5C 296.562,135.97 313.062,128.47 330.5,123C 334.908,122.296 338.241,123.796 340.5,127.5 Z"/></g>
<g><path style="opacity:1" fill="#976a53" d="M 225.5,85.5 C 234.195,101.25 240.529,117.917 244.5,135.5C 244.379,142.241 241.713,147.741 236.5,152C 212.854,170.809 192.188,192.309 174.5,216.5C 160.583,181.246 150.417,144.912 144,107.5C 142.804,102.777 140.804,98.4432 138,94.5C 130.111,89.7202 123.111,90.7202 117,97.5C 104.356,123.033 98.6889,150.033 100,178.5C 100.792,180.644 102.292,181.977 104.5,182.5C 105.209,183.404 106.209,183.737 107.5,183.5C 108.19,189.81 108.524,196.143 108.5,202.5C 106.897,203.596 105.397,204.93 104,206.5C 103.903,215.021 105.236,223.355 108,231.5C 113.411,247.401 119.411,263.068 126,278.5C 129.143,287.427 131.976,296.427 134.5,305.5C 127.715,332.591 126.715,359.925 131.5,387.5C 131.369,401.963 124.036,408.963 109.5,408.5C 94.9569,407.782 81.2903,404.116 68.5,397.5C 64.6281,392.504 59.6281,391.171 53.5,393.5C 50.1925,388.518 46.8592,383.518 43.5,378.5C 46.437,375.749 47.6037,372.415 47,368.5C 27.9637,335.03 17.297,299.03 15,260.5C 11.2579,207.919 22.5913,158.919 49,113.5C 63.3691,89.7967 82.8691,71.63 107.5,59C 152.703,41.905 192.036,50.7384 225.5,85.5 Z"/></g>
<g><path style="opacity:1" fill="#825b46" d="M 225.5,85.5 C 244.025,105.185 258.025,127.852 267.5,153.5C 234.375,176.791 206.875,205.458 185,239.5C 181.211,231.965 177.711,224.298 174.5,216.5C 192.188,192.309 212.854,170.809 236.5,152C 241.713,147.741 244.379,142.241 244.5,135.5C 240.529,117.917 234.195,101.25 225.5,85.5 Z"/></g>
<g><path style="opacity:1" fill="#654444" d="M 164.5,232.5 C 156.271,247.624 148.604,262.958 141.5,278.5C 137.234,265.964 132.401,253.631 127,241.5C 123.221,230.718 120.221,219.718 118,208.5C 116.189,204.345 113.023,202.345 108.5,202.5C 108.524,196.143 108.19,189.81 107.5,183.5C 106.209,183.737 105.209,183.404 104.5,182.5C 109.181,183.544 112.348,181.877 114,177.5C 113.547,153.762 118.214,131.096 128,109.5C 136.277,151.597 148.443,192.597 164.5,232.5 Z"/></g>
<g><path style="opacity:1" fill="#976a53" d="M 358.5,123.5 C 359.508,126.028 361.174,128.195 363.5,130C 377.144,129.472 390.811,129.472 404.5,130C 457.77,137.77 488.104,168.27 495.5,221.5C 495.666,228.175 495.5,234.842 495,241.5C 472.457,306.047 431.624,355.547 372.5,390C 345.639,404.954 316.972,414.287 286.5,418C 277.99,418.823 269.656,418.657 261.5,417.5C 295.637,401.865 322.804,378.198 343,346.5C 354.882,325.733 364.882,304.066 373,281.5C 378,271.5 383,261.5 388,251.5C 400.603,229.903 413.603,208.57 427,187.5C 428.833,179.333 425.999,173.499 418.5,170C 414.739,169.262 411.072,169.595 407.5,171C 363.956,188.543 331.122,218.043 309,259.5C 297.343,287.469 284.343,314.802 270,341.5C 257.333,361.5 244.667,381.5 232,401.5C 231.502,404.817 231.335,408.15 231.5,411.5C 205.654,404.549 185.821,389.216 172,365.5C 169.178,360.196 166.678,354.863 164.5,349.5C 166.028,317.059 174.861,286.726 191,258.5C 224.909,200.596 273.409,160.096 336.5,137C 338.925,134.333 340.258,131.166 340.5,127.5C 346.528,126.159 352.528,124.826 358.5,123.5 Z"/></g>
<g><path style="opacity:1" fill="#020101" d="M 261.5,417.5 C 253.715,422.012 245.715,422.512 237.5,419C 234.879,416.886 232.879,414.386 231.5,411.5C 231.335,408.15 231.502,404.817 232,401.5C 244.667,381.5 257.333,361.5 270,341.5C 284.343,314.802 297.343,287.469 309,259.5C 331.122,218.043 363.956,188.543 407.5,171C 411.072,169.595 414.739,169.262 418.5,170C 425.999,173.499 428.833,179.333 427,187.5C 413.603,208.57 400.603,229.903 388,251.5C 383,261.5 378,271.5 373,281.5C 364.882,304.066 354.882,325.733 343,346.5C 322.804,378.198 295.637,401.865 261.5,417.5 Z"/></g>
<g><path style="opacity:1" fill="#513737" d="M 408.5,186.5 C 410.028,186.517 410.528,187.184 410,188.5C 383.139,226.213 361.472,266.88 345,310.5C 328.332,349.5 301.498,379.334 264.5,400C 258.808,403.193 252.808,405.193 246.5,406C 274.315,367.448 297.148,325.948 315,281.5C 334.013,237.655 365.179,205.989 408.5,186.5 Z"/></g>
<g><path style="opacity:1" fill="#513737" d="M 164.5,232.5 C 168.613,240.411 171.946,248.745 174.5,257.5C 165.657,275.529 158.491,294.196 153,313.5C 149.857,301.57 146.023,289.904 141.5,278.5C 148.604,262.958 156.271,247.624 164.5,232.5 Z"/></g>
<g><path style="opacity:1" fill="#835b46" d="M 495.5,221.5 C 497.621,244.167 495.121,266.5 488,288.5C 471.027,338.27 441.86,379.436 400.5,412C 368.183,437.672 331.516,453.672 290.5,460C 256.242,465.104 225.575,457.104 198.5,436C 174.536,412.3 163.203,383.467 164.5,349.5C 166.678,354.863 169.178,360.196 172,365.5C 185.821,389.216 205.654,404.549 231.5,411.5C 232.879,414.386 234.879,416.886 237.5,419C 245.715,422.512 253.715,422.012 261.5,417.5C 269.656,418.657 277.99,418.823 286.5,418C 316.972,414.287 345.639,404.954 372.5,390C 431.624,355.547 472.457,306.047 495,241.5C 495.5,234.842 495.666,228.175 495.5,221.5 Z"/></g>
<g><path style="opacity:1" fill="#825b46" d="M 134.5,305.5 C 137.93,315.204 140.763,325.204 143,335.5C 147.336,355.847 151.669,376.181 156,396.5C 160.209,409.42 166.375,421.253 174.5,432C 132.384,441.239 97.0511,429.739 68.5,397.5C 81.2903,404.116 94.9569,407.782 109.5,408.5C 124.036,408.963 131.369,401.963 131.5,387.5C 126.715,359.925 127.715,332.591 134.5,305.5 Z"/></g>
</svg>
