<?xml version="1.0" encoding="UTF-8"?>
<!DOCTYPE svg PUBLIC "-//W3C//DTD SVG 1.1//EN" "http://www.w3.org/Graphics/SVG/1.1/DTD/svg11.dtd">
<svg xmlns="http://www.w3.org/2000/svg" version="1.1" width="512px" height="512px" style="shape-rendering:geometricPrecision; text-rendering:geometricPrecision; image-rendering:optimizeQuality; fill-rule:evenodd; clip-rule:evenodd" xmlns:xlink="http://www.w3.org/1999/xlink">
<g><path style="opacity:0.985" fill="#010101" d="M 113.5,-0.5 C 208.167,-0.5 302.833,-0.5 397.5,-0.5C 407.005,14.5171 416.338,29.6837 425.5,45C 431.167,45.3333 436.833,45.6667 442.5,46C 445.893,46.3935 448.06,48.2268 449,51.5C 449.667,69.1667 449.667,86.8333 449,104.5C 448.215,106.286 447.049,107.786 445.5,109C 439.38,108.902 433.546,109.736 428,111.5C 425.335,133.489 422.835,155.489 420.5,177.5C 425.297,177.121 429.964,177.621 434.5,179C 436.027,181.757 436.693,184.757 436.5,188C 429.251,255.245 421.417,322.411 413,389.5C 411.833,390.667 410.667,391.833 409.5,393C 404.845,393.499 400.179,393.666 395.5,393.5C 391.247,431.191 386.747,468.858 382,506.5C 381.303,508.584 380.136,510.251 378.5,511.5C 321.833,511.5 265.167,511.5 208.5,511.5C 205.905,509.986 204.571,507.652 204.5,504.5C 204.833,499.5 207.5,496.833 212.5,496.5C 264.5,496.5 316.5,496.5 368.5,496.5C 372.057,462.158 375.723,427.825 379.5,393.5C 369.833,393.5 360.167,393.5 350.5,393.5C 277.5,393.5 204.5,393.5 131.5,393.5C 135.587,427.785 139.253,462.118 142.5,496.5C 156.171,496.333 169.837,496.5 183.5,497C 187.57,497.899 189.57,500.399 189.5,504.5C 189.813,507.837 188.48,510.171 185.5,511.5C 167.833,511.5 150.167,511.5 132.5,511.5C 129.683,508.858 128.183,505.525 128,501.5C 123.869,465.486 119.702,429.486 115.5,393.5C 110.821,393.666 106.155,393.499 101.5,393C 100.333,391.833 99.1667,390.667 98,389.5C 89.5827,322.411 81.7493,255.245 74.5,188C 74.3066,184.757 74.9733,181.757 76.5,179C 81.036,177.621 85.7027,177.121 90.5,177.5C 88.1654,155.489 85.6654,133.489 83,111.5C 77.4537,109.736 71.6204,108.902 65.5,109C 63.9512,107.786 62.7845,106.286 62,104.5C 61.3333,86.8333 61.3333,69.1667 62,51.5C 62.9404,48.2268 65.1071,46.3935 68.5,46C 74.1667,45.6667 79.8333,45.3333 85.5,45C 94.6619,29.6837 103.995,14.5171 113.5,-0.5 Z"/></g>
<g><path style="opacity:1" fill="#2f2f2f" d="M 352.5,14.5 C 359.019,24.8702 365.019,35.5368 370.5,46.5C 301.499,46.3333 232.499,46.5 163.5,47C 160.603,48.7155 159.269,51.2155 159.5,54.5C 153.865,53.9634 148.532,54.6301 143.5,56.5C 144.296,52.3162 142.963,49.1496 139.5,47C 127.5,46.6667 115.5,46.3333 103.5,46C 109.699,35.9636 115.699,25.7969 121.5,15.5C 198.497,14.5 275.497,14.1667 352.5,14.5 Z"/></g>
<g><path style="opacity:1" fill="#222222" d="M 352.5,14.5 C 364.505,14.3335 376.505,14.5001 388.5,15C 394.833,25.3333 401.167,35.6667 407.5,46C 395.171,46.4999 382.838,46.6665 370.5,46.5C 365.019,35.5368 359.019,24.8702 352.5,14.5 Z"/></g>
<g><path style="opacity:1" fill="#484848" d="M 159.5,54.5 C 159.744,57.2626 161.077,59.4293 163.5,61C 241.166,61.5 318.833,61.6667 396.5,61.5C 396.5,72.5 396.5,83.5 396.5,94.5C 289.833,94.5 183.167,94.5 76.5,94.5C 76.5,83.5 76.5,72.5 76.5,61.5C 97.5026,61.6666 118.503,61.5 139.5,61C 141.384,59.9513 142.718,58.4513 143.5,56.5C 148.532,54.6301 153.865,53.9634 159.5,54.5 Z"/></g>
<g><path style="opacity:1" fill="#2f2f2f" d="M 396.5,61.5 C 408.833,61.5 421.167,61.5 433.5,61.5C 433.5,72.5 433.5,83.5 433.5,94.5C 421.167,94.5 408.833,94.5 396.5,94.5C 396.5,83.5 396.5,72.5 396.5,61.5 Z"/></g>
<g><path style="opacity:1" fill="#dfdfdf" d="M 383.5,109.5 C 381.388,132.18 379.054,154.847 376.5,177.5C 370.491,177.334 364.491,177.501 358.5,178C 355.8,179.857 354.134,182.357 353.5,185.5C 348.5,185.5 343.5,185.5 338.5,185.5C 338.57,181.399 336.57,178.899 332.5,178C 257.167,177.5 181.834,177.333 106.5,177.5C 103.616,154.862 100.949,132.195 98.5,109.5C 193.5,109.5 288.5,109.5 383.5,109.5 Z"/></g>
<g><path style="opacity:1" fill="#c4c4c4" d="M 383.5,109.5 C 393.167,109.5 402.833,109.5 412.5,109.5C 410.051,132.195 407.384,154.862 404.5,177.5C 395.167,177.5 385.833,177.5 376.5,177.5C 379.054,154.847 381.388,132.18 383.5,109.5 Z"/></g>
<g><path style="opacity:1" fill="#242c39" d="M 338.5,185.5 C 343.5,185.5 348.5,185.5 353.5,185.5C 354.269,189.353 356.602,191.686 360.5,192.5C 370.653,193.494 380.986,193.828 391.5,193.5C 384.648,254.836 377.648,316.17 370.5,377.5C 284.167,377.5 197.833,377.5 111.5,377.5C 104.427,315.841 97.4267,254.174 90.5,192.5C 171.834,192.667 253.167,192.5 334.5,192C 336.923,190.429 338.256,188.263 338.5,185.5 Z"/></g>
<g><path style="opacity:1" fill="#333c49" d="M 360.5,192.5 C 380.5,192.5 400.5,192.5 420.5,192.5C 413.5,254.5 406.5,316.5 399.5,378.5C 303.332,378.833 207.332,378.499 111.5,377.5C 197.833,377.5 284.167,377.5 370.5,377.5C 377.648,316.17 384.648,254.836 391.5,193.5C 380.986,193.828 370.653,193.494 360.5,192.5 Z"/></g>
<g><path style="opacity:1" fill="#040100" d="M 248.5,221.5 C 276.433,221.608 294.6,234.941 303,261.5C 310.529,289.564 303.696,313.397 282.5,333C 254.547,348.681 231.714,343.181 214,316.5C 197.45,283.598 202.616,254.764 229.5,230C 235.441,226.024 241.774,223.191 248.5,221.5 Z"/></g>
<g><path style="opacity:1" fill="#5e2d17" d="M 269.5,290.5 C 273.131,277.063 271.298,264.063 264,251.5C 262.951,249.382 261.451,247.716 259.5,246.5C 260.693,243.948 262.027,241.448 263.5,239C 266.702,239.086 269.702,240.086 272.5,242C 286.679,254.185 292.846,269.685 291,288.5C 289.306,302.838 282.64,314.172 271,322.5C 271.904,317.277 272.404,311.944 272.5,306.5C 272.897,300.849 271.897,295.516 269.5,290.5 Z"/></g>
<g><path style="opacity:1" fill="#7a3c1d" d="M 244.5,238.5 C 245.239,238.369 245.906,238.536 246.5,239C 240.015,252.364 239.849,265.864 246,279.5C 249.585,285.002 252.919,290.669 256,296.5C 258.864,306.737 257.53,316.404 252,325.5C 251.439,326.022 250.772,326.355 250,326.5C 236.781,322.282 227.781,313.615 223,300.5C 215.893,279.103 220.059,260.269 235.5,244C 238.564,242.141 241.564,240.308 244.5,238.5 Z"/></g>
<g><path style="opacity:1" fill="#783b1d" d="M 259.5,246.5 C 261.451,247.716 262.951,249.382 264,251.5C 271.298,264.063 273.131,277.063 269.5,290.5C 266.257,284.074 262.757,277.74 259,271.5C 255.579,263.062 255.746,254.729 259.5,246.5 Z"/></g>
<g><path style="opacity:1" fill="#dfdfdf" d="M 350.5,393.5 C 347.275,427.531 343.608,461.531 339.5,495.5C 296.997,495.168 254.663,495.501 212.5,496.5C 207.5,496.833 204.833,499.5 204.5,504.5C 199.5,504.5 194.5,504.5 189.5,504.5C 189.57,500.399 187.57,497.899 183.5,497C 169.837,496.5 156.171,496.333 142.5,496.5C 139.253,462.118 135.587,427.785 131.5,393.5C 204.5,393.5 277.5,393.5 350.5,393.5 Z"/></g>
<g><path style="opacity:1" fill="#c5c5c5" d="M 350.5,393.5 C 360.167,393.5 369.833,393.5 379.5,393.5C 375.723,427.825 372.057,462.158 368.5,496.5C 316.5,496.5 264.5,496.5 212.5,496.5C 254.663,495.501 296.997,495.168 339.5,495.5C 343.608,461.531 347.275,427.531 350.5,393.5 Z"/></g>
</svg>
