<?xml version="1.0" encoding="UTF-8"?>
<svg id="Layer_1" data-name="Layer 1" xmlns="http://www.w3.org/2000/svg" viewBox="0 0 116.52 72.52">
  <path d="m46.63,65.52c-21.85,0-39.63-17.78-39.63-39.63v-12.44h79.26v12.44c0,21.85-17.78,39.63-39.63,39.63Z" fill="#784f40" stroke-width="0"/>
  <path d="m95.67,10.78c-1.16,0-2.3.12-3.41.31V1H1v24.89c0,25.2,20.43,45.63,45.63,45.63h0c17.1,0,31.99-9.41,39.81-23.33,2.76,1.46,5.9,2.29,9.23,2.29,10.95,0,19.85-8.91,19.85-19.85s-8.91-19.85-19.85-19.85Zm0,32.15c-2.21,0-4.29-.6-6.08-1.62,1.73-4.82,2.68-10,2.68-15.41v-7.06c1.08-.31,2.22-.49,3.41-.49,6.78,0,12.29,5.52,12.29,12.3s-5.52,12.3-12.29,12.3Z" fill="none" stroke="#1b2837" stroke-linecap="round" stroke-linejoin="round" stroke-width="2"/>
  <path d="m7,25.89c0,.2.01.39.01.59h79.23c0-.2.02-.39.02-.59v-12.44H7v12.44Z" fill="#f4e4cf" stroke-width="0"/>
  <path d="m19.31,13.44c.32,22.44,5.62,42.2,20.62,51.5,2.18.37,4.41.58,6.7.58,2.85,0,5.63-.31,8.31-.88-17.35-9.9-19.64-37.16-19.61-51.19h-16.01Z" fill="#fff" opacity=".25" stroke-width="0"/>
</svg>