<?xml version="1.0" encoding="UTF-8"?>
<svg id="Layer_1" data-name="Layer 1" xmlns="http://www.w3.org/2000/svg" viewBox="0 0 53.56 133.77">
  <path d="m52.56,88.77V25.36H1v63.41s-.52,34.96,25.78,34.96h0s0,0,0,0h0c26.3,0,25.78-34.96,25.78-34.96Z" fill="none" stroke="#292e43" stroke-linecap="round" stroke-linejoin="round" stroke-width="2"/>
  <path d="m26.78,117.73c-4.89,0-8.75-1.5-11.81-4.59-8.05-8.13-7.97-24.13-7.97-24.29V31.36h39.56v57.41c0,.24.08,16.24-7.97,24.37-3.06,3.09-6.92,4.59-11.81,4.59h0Z" fill="#e7a05f" stroke-width="0"/>
  <path d="m43.2,117.28c4.04,1.64,6.54,3.89,6.54,6.38,0,5.03-10.25,9.11-22.89,9.11s-22.89-4.08-22.89-9.11c0-2.44,2.42-4.66,6.36-6.3" fill="none" stroke="#292e43" stroke-linecap="round" stroke-linejoin="round" stroke-width="2"/>
  <rect x="7" y="31.36" width="39.55" height="36.07" fill="#e2c9a4" stroke-width="0"/>
  <path d="m46.56,47.28v-15.92H7v15.85s.03,0,.03,0c0,.09-.03.17-.03.26v8.96c0,1.57,1.27,2.84,2.84,2.84s2.84-1.27,2.84-2.84v-5.74c0-1.57,1.27-2.84,2.84-2.84,1.42,0,2.58,1.04,2.79,2.4v15.51c0,1.57,1.27,2.84,2.84,2.84s2.84-1.27,2.84-2.84v-11c.08-1.5,1.31-2.69,2.82-2.69,1.42,0,2.58,1.04,2.79,2.4v21.36c0,1.57,1.27,2.84,2.84,2.84s2.84-1.27,2.84-2.84v-17.86c.03-1.54,1.28-2.79,2.83-2.79,1.42,0,2.58,1.04,2.79,2.4v1.96c0,1.57,1.27,2.84,2.84,2.84s2.84-1.27,2.84-2.84v-12.07c0-.07-.01-.13-.02-.19Zm-22.6-.07h.04c0,.06-.02.12-.02.19,0-.06-.01-.12-.02-.19Zm5.67,0s0,.03,0,.04c0-.01,0-.03,0-.04h0Z" fill="#583727" stroke-width="0"/>
  <g>
    <path d="m45.67,13.88H8.22c-1.93,0-3.5,1.58-3.5,3.5s1.57,3.5,3.5,3.5h37.44c1.93,0,3.5-1.58,3.5-3.5s-1.57-3.5-3.5-3.5Z" fill="#f4e4cf" stroke-width="0"/>
    <path d="m40.4,6.99H13.49c-1.93,0-3.5,1.57-3.5,3.5s1.57,3.5,3.5,3.5h26.91c1.93,0,3.5-1.58,3.5-3.5s-1.57-3.5-3.5-3.5Z" fill="#f4e4cf" stroke-width="0"/>
    <path d="m36.04,0h-18.09c-1.93,0-3.5,1.58-3.5,3.5s1.57,3.5,3.5,3.5h18.09c1.93,0,3.5-1.58,3.5-3.5s-1.57-3.5-3.5-3.5Z" fill="#f4e4cf" stroke-width="0"/>
  </g>
  <path d="m13.89,31.36c.03,54.86,1.09,74.4,3.76,83.94,2.26,1.43,4.88,2.22,7.91,2.38-2.52-7.03-4.79-17.37-4.86-31.88-.1-23.14-.06-44.12-.03-54.44h-6.79Z" fill="#fff" opacity=".25" stroke-width="0"/>
</svg>