<?xml version="1.0" encoding="UTF-8"?>
<svg id="Layer_1" data-name="Layer 1" xmlns="http://www.w3.org/2000/svg" viewBox="0 0 88.81 135.75">
  <path d="m46.81,122.71c6.04,1.2,9.99,3.18,9.99,5.42,0,3.66-10.52,6.62-23.5,6.62s-23.5-2.97-23.5-6.62c0-2.21,3.84-4.17,9.75-5.37" fill="none" stroke="#292e43" stroke-linecap="round" stroke-linejoin="round" stroke-width="2"/>
  <path d="m25.27,108.8c.28,1.19.38,2.54.19,4.06-.71,5.73-4.99,9.65-7.67,11.58-.93.67-.85,2.38.15,2.9,6.13,3.19,15.3,3.11,15.36,3.11.06,0,9.23.08,15.36-3.11,1-.52,1.08-2.23.15-2.9-2.68-1.93-6.96-5.85-7.67-11.58-.18-1.43-.1-2.71.14-3.84" fill="none" stroke="#292e43" stroke-linecap="round" stroke-linejoin="round" stroke-width="2"/>
  <path d="m33.3,103.65c-14.5,0-26.3-11.8-26.3-26.3V26.17h52.59v51.18c0,14.5-11.8,26.3-26.3,26.3Z" fill="#583727" stroke-width="0"/>
  <path d="m75.42,41.41h-9.83v-21.24H1v57.19c0,17.84,14.46,32.3,32.3,32.3h0c16.81,0,30.61-12.84,32.15-29.24h9.97c6.83,0,12.39-5.56,12.39-12.39v-14.22c0-6.83-5.56-12.39-12.39-12.39Zm5.39,26.61c0,2.97-2.42,5.39-5.39,5.39h-9.83v-25h9.83c2.97,0,5.39,2.42,5.39,5.39v14.22Z" fill="none" stroke="#292e43" stroke-linecap="round" stroke-linejoin="round" stroke-width="2"/>
  <rect x="7" y="26.17" width="52.59" height="31.93" fill="#e7a05f" stroke-width="0"/>
  <rect x="7" y="26.1" width="52.59" height="25.48" fill="#f4e4cf" stroke-width="0"/>
  <path d="m6.86,15.36h52.89s-5.89-10-21.3-10c0,0-6.31-1.5-5.09-5.33,0,0-7.67-.78-9.22,6.72,0,0-11.61.09-17.28,8.61Z" fill="#f4e4cf" stroke-width="0"/>
  <path d="m15.21,26.17c.29,43.73,7.94,66.01,15.32,77.34.91.1,1.83.15,2.76.15,2.9,0,5.69-.48,8.3-1.35-5.56-8.47-11.67-20.29-14.18-34.06-3.09-16.9-2.44-32.42-1.45-42.07h-10.76Z" fill="#fff" opacity=".25" stroke-width="0"/>
</svg>