<?xml version="1.0" encoding="UTF-8"?>
<svg id="Layer_1" data-name="Layer 1" xmlns="http://www.w3.org/2000/svg" viewBox="0 0 89 113.56">
  <path d="m57.9,100.03c3.69,1.32,5.89,2.97,5.89,4.77,0,4.28-12.49,7.76-27.91,7.76s-27.91-3.47-27.91-7.76c0-1.83,2.29-3.52,6.11-4.85" fill="none" stroke="#292e43" stroke-linecap="round" stroke-linejoin="round" stroke-width="2"/>
  <path d="m35.88,98.71c-5.71,0-11.46-1.09-16.8-3.18L7.81,7h56.13l-11.27,88.53c-5.14,2.01-10.66,3.1-16.15,3.18h-.65Z" fill="#e2c9a4" stroke-width="0"/>
  <path d="m66.64,33.39L70.76,1H1c4.19,32.89,8.37,65.78,12.56,98.68,4.19,1.99,12.36,5.18,23.06,5.03,9.9-.14,17.47-3.08,21.58-5.03l2.36-18.57c1.11.16,2.23.24,3.38.24,13.26,0,24.06-10.79,24.06-24.06,0-12.35-9.36-22.56-21.36-23.9Zm-2.69,38.96c-.76,0-1.51-.08-2.24-.19l3.8-29.84c7.57.78,13.5,7.2,13.5,14.97,0,8.3-6.75,15.06-15.06,15.06Z" fill="none" stroke="#292e43" stroke-linecap="round" stroke-linejoin="round" stroke-width="2"/>
  <polygon points="13.23 49.59 58.53 49.59 63.95 7 7.81 7 13.23 49.59" fill="#e7a05f" stroke-width="0"/>
  <polygon points="10.33 26.78 61.43 26.78 63.95 7 7.81 7 10.33 26.78" fill="#f4e4cf" stroke-width="0"/>
  <path d="m26.98,97.82c2.6.51,5.23.8,7.87.86L31.24,7h-14.66l10.4,90.82Z" fill="#fff" opacity=".25" stroke-width="0"/>
</svg>