<?xml version="1.0" encoding="UTF-8"?>
<svg id="Layer_1" data-name="Layer 1" xmlns="http://www.w3.org/2000/svg" viewBox="0 0 114.15 104.44">
  <path d="m26.93,97.44c-3.65,0-6.67-2.85-6.89-6.49l-.8-13.27c-.2-3.25-.91-6.44-2.12-9.47-4.15-10.37-6.99-21.25-8.43-32.33l-.84-6.44h70.78l-.84,6.44c-1.45,11.08-4.28,21.96-8.43,32.33-1.21,3.03-1.92,6.21-2.12,9.47l-.8,13.27c-.22,3.64-3.25,6.49-6.89,6.49H26.93Z" fill="#e7a05f" stroke-width="0"/>
  <path d="m107.98,36.87c-4.94-4.44-11.43-4.22-12.93-4.1h-10.82l1.22-9.33H1l1.72,13.22c1.51,11.59,4.47,22.94,8.81,33.78.97,2.43,1.55,4.99,1.7,7.6l.8,13.27c.41,6.81,6.06,12.13,12.88,12.13h32.59c5.8,0,10.74-3.85,12.35-9.19,6.24-5.98,12.82-10.96,18.71-15.41,12.11-9.15,22.58-17.06,22.58-28.74,0-5.7-1.74-10.15-5.17-13.23Zm-22.23,35.59c-4.05,3.06-8.41,6.37-12.82,10.09l.27-4.51c.16-2.61.73-5.17,1.7-7.6,3.82-9.56,6.57-19.51,8.21-29.67h12.1c.14,0,.28,0,.42-.02.04,0,4.3-.34,6.98,2.07,1.67,1.5,2.52,3.96,2.52,7.29,0,7.7-8.56,14.17-19.4,22.36Z" fill="none" stroke="#242c39" stroke-linecap="round" stroke-linejoin="round" stroke-width="2"/>
  <path d="m19.11,76.47c.04.4.1.8.12,1.2l.8,13.27c.22,3.64,3.25,6.49,6.89,6.49h32.59c3.65,0,6.67-2.85,6.89-6.49l.8-13.27c.02-.4.08-.8.12-1.2H19.11Z" fill="#583727" stroke-width="0"/>
  <path d="m8.67,35.88c.45,3.48,1.06,6.94,1.79,10.37h65.52c.73-3.43,1.33-6.89,1.79-10.37l.84-6.44H7.83l.84,6.44Z" fill="#f4e4cf" stroke-width="0"/>
  <path d="m5.92,17.41h74.22S78.16,0,41.88,0,5.92,17.41,5.92,17.41Z" fill="#f4e4cf" stroke-width="0"/>
  <path d="m21.89,57.21c4.61,8.56,5.68,29.78,5.93,40.22h7.59c-.47-11.54-1.63-33.66-3.74-39.33-2.3-6.2-5.87-15.09-7.67-28.67h-9.38c1.33,8.97,3.66,21.07,7.28,27.78Z" fill="#fff" opacity=".25" stroke-width="0"/>
</svg>