<?xml version="1.0" encoding="UTF-8"?>
<svg id="Layer_1" data-name="Layer 1" xmlns="http://www.w3.org/2000/svg" viewBox="0 0 74.17 151.72">
  <path d="m22.75,117.54c.17,1.19.23,10.04.11,11.56-.42,5.73-2.99,9.65-4.6,11.58-.56.67-.51,2.38.09,2.9,3.68,3.19,9.18,3.11,9.22,3.11.03,0,5.54.08,9.22-3.11.6-.52.65-2.23.09-2.9-1.61-1.93-4.18-5.85-4.6-11.58-.11-1.43-.06-10.21.08-11.35" fill="none" stroke="#292e43" stroke-linecap="round" stroke-linejoin="round" stroke-width="2"/>
  <path d="m52.33,45.3l.89-10.8H2.11l5.34,64.63c.94,10.46,9.71,18.48,20.22,18.48h0c8.73,0,16.24-5.54,19.08-13.42,1.21-.69,2.44-1.72,3.58-3.25,0,0,17.28-10.01,22.07-31.48,4.19-18.77-9.86-25.54-20.08-24.16Zm-4.04,48.93l3.42-41.46c15.87-2.85,20.3,18.9-3.42,41.46Z" fill="none" stroke="#1b2837" stroke-linecap="round" stroke-linejoin="round" stroke-width="2"/>
  <path d="m27.67,111.61c-7.45,0-13.57-5.6-14.24-13.02l-4.8-58.09h38.08l-4.8,58.14c-.66,7.38-6.79,12.97-14.24,12.97Z" fill="#94593a" stroke-width="0"/>
  <path d="m11.76,78.5l1.66,20.09c.67,7.42,6.79,13.02,14.24,13.02s13.58-5.6,14.24-12.97l1.66-20.14H11.76Z" fill="#f4e4cf" stroke-width="0"/>
  <path d="m35.01,137.98c11.1.78,19.22,3.28,19.22,6.25,0,3.59-11.91,6.5-26.61,6.5s-26.61-2.91-26.61-6.5c0-2.93,7.94-5.41,18.86-6.22" fill="none" stroke="#292e43" stroke-linecap="round" stroke-linejoin="round" stroke-width="2"/>
  <path d="m12.6,88.57l.83,10.02c.67,7.42,6.79,13.02,14.24,13.02s13.58-5.6,14.24-12.97l.83-10.06H12.6Z" fill="#583727" stroke-width="0"/>
  <polygon points="10.37 61.61 44.96 61.61 46.71 40.5 8.63 40.5 10.37 61.61" fill="#f4e4cf" stroke-width="0"/>
  <path d="m46.93,22.06h-4.44c1.53-.38,2.67-1.75,2.67-3.39,0-1.92-1.57-3.5-3.5-3.5h-4.25c1.87-.06,3.39-1.6,3.39-3.49s-1.57-3.5-3.5-3.5h-5.66C26.69,6.2,29.28,0,29.28,0,29.28,0,21.15-.2,19.75,8.18h-.55c-1.92,0-3.5,1.57-3.5,3.5s1.51,3.43,3.39,3.49h-4.34c-1.92,0-3.5,1.58-3.5,3.5,0,1.64,1.14,3.01,2.67,3.39h-4.44c-1.92,0-3.5,1.58-3.5,3.5s1.57,3.5,3.5,3.5h37.44c1.93,0,3.5-1.58,3.5-3.5s-1.57-3.5-3.5-3.5Z" fill="#f4e4cf" stroke-width="0"/>
  <path d="m12.98,40.5c1.03,14.95,3.26,46.32,5.3,67.62,1.81,1.57,4,2.68,6.43,3.18-1.41-6.86-2.45-15.51-2.54-26.28-.15-17.92-.08-33.43.03-44.52h-9.24Z" fill="#fff" opacity=".25" stroke-width="0"/>
</svg>